<svg width="644" height="182" viewBox="0 0 644 182" fill="none" xmlns="http://www.w3.org/2000/svg">
<path d="M283.631 168C264.602 168 249.936 163.768 239.649 155.305C229.495 146.842 224.281 135.35 224 120.828H246.416C246.978 130.845 250.014 138.106 255.509 142.618C261.152 146.99 270.105 149.176 282.367 149.176C294.628 149.176 303.651 147.623 309.013 144.523C314.367 141.283 317.052 135.287 317.052 126.543C317.052 119.633 315.429 114.629 312.19 111.522C309.091 108.282 303.237 105.666 294.636 103.691L265.874 97.1327C252.2 94.0332 242.123 89.2394 235.637 82.7515C229.292 76.2636 226.123 68.1596 226.123 58.4238C226.123 49.8201 228.308 42.208 232.679 35.5795C237.191 28.8105 243.536 23.525 251.708 19.715C260.028 15.905 269.753 14 280.891 14C292.591 14 302.675 15.9753 311.128 19.9258C319.589 23.7358 326.075 29.0916 330.586 36.0011C335.098 42.9106 337.494 50.8819 337.775 59.9072H315.359C314.656 50.3198 311.62 43.4103 306.266 39.1787C300.911 34.9471 292.451 32.8313 280.891 32.8313C269.332 32.8313 261.082 34.4553 256.149 37.6953C251.216 40.9354 248.75 47.0017 248.75 55.8864C248.75 60.118 249.382 63.5689 250.654 66.2546C251.919 68.792 254.253 71.0483 257.632 73.0236C261.012 74.8583 266.023 76.4822 272.649 77.8876L297.813 83.1731C312.76 86.2727 323.609 91.2069 330.376 97.9759C337.283 104.604 340.741 112.927 340.741 122.936C340.741 131.54 338.415 139.292 333.763 146.202C329.252 152.971 322.695 158.327 314.094 162.277C305.493 166.087 295.346 167.992 283.639 167.992L283.631 168ZM378.525 39.1787H357.381V16.9668H378.525V39.1787ZM378.104 165.041H357.803V56.105H378.104V165.041ZM459.878 168C452.689 168 446.203 166.657 440.42 163.979C434.636 161.301 430.265 157.983 427.307 154.04H420.962L420.329 165.041H400.871V16.9668H420.962V67.0978H427.307C430.265 63.1473 434.706 59.837 440.63 57.159C446.695 54.4811 453.392 53.1383 460.721 53.1383C469.743 53.1383 477.634 55.3243 484.401 59.6964C491.168 64.0685 496.452 70.5565 500.261 79.1602C504.07 87.6233 505.975 97.9134 505.975 110.046C505.975 123.022 503.86 133.874 499.629 142.618C495.539 151.222 489.974 157.64 482.926 161.863C476.019 165.954 468.331 168 459.878 168ZM452.689 149.387C462.695 149.387 469.821 148.474 474.044 146.639C478.274 144.664 480.952 141.143 482.075 136.06C483.348 130.985 483.98 122.452 483.98 110.468C483.98 98.4833 483.348 90.0202 482.075 85.0859C480.952 80.0112 478.267 76.5525 474.044 74.7178C469.814 72.7425 462.695 71.7588 452.689 71.7588C442.683 71.7588 435.487 72.7425 431.116 74.7178C426.886 76.5525 424.138 80.0034 422.866 85.0859C421.594 90.1607 420.962 98.6239 420.962 110.468C420.962 122.311 421.594 130.985 422.866 136.06C424.138 141.135 426.886 144.664 431.116 146.639C435.487 148.474 442.675 149.387 452.689 149.387ZM547.069 165.041L507.528 56.105H529.312L546.655 106.236C550.323 116.956 553.211 128.378 555.326 140.503H561.672C563.647 128.659 566.815 117.237 571.186 106.236L590.434 56.105H612.007L569.5 165.041H547.084H547.069ZM644 39.1787H622.856V16.9668H644V39.1787ZM643.579 165.041H623.277V56.105H643.579V165.041Z" fill="#F7E4C9"/>
<path d="M101.823 181.382H80.4219V159.981H101.823V181.382ZM80.4277 159.923H42.959V139.251H80.4277V159.923ZM159.865 139.251H139.295V159.923H101.827V139.251H139.193V101.783H159.865V139.251ZM42.8975 139.251H22.2256V101.783H42.8975V139.251ZM22.1357 101.693H0.734375V80.292H22.1357V101.693ZM181.329 101.693H159.928V80.293H181.329V101.693ZM42.8662 80.3555H22.1943V42.8867H42.8662V80.3555ZM159.865 80.3555H139.193V42.8867H159.865V80.3555ZM80.377 22.1924V42.8643H42.9092V22.1914L80.377 22.1924ZM101.823 22.1924H139.242V42.8643H101.773V22.1924H80.4219V0.791016H101.823V22.1924Z" fill="#59F0FF"/>
</svg>
